# xmcd
#
# Track frame offsets:
# 150
# 17133
# 33967
# 48403
# 62956
# 79089
# 93503
# 152270
# 172472
# 184855
# 204095
# 223031
# 235939
# 254364
# 269844
# 283962
# 301132
# 314166
# 331290
#
# Disc length: 4586 seconds
#
#
# Revision: 0
# Processed by: cddbd v1.5.2PL0 Copyright (c) Steve Scherf et al.
# Submitted via: FreeRIP 2.35 
#
DISCID=1c11e813
DTITLE=Dario Gomez - Grandes Exitos Vol 2
DYEAR=1900
DGENRE=Folklore
TTITLE0=Fiebre de amor
TTITLE1=Entre humo y cerveza
TTITLE2=Muy Demalas
TTITLE3=Mi corazon esta solito
TTITLE4=La reina de la traición
TTITLE5=La tirana
TTITLE6=Popurri del despecho
TTITLE7=Daniela
TTITLE8=Llorar no quiero yo
TTITLE9=Asi me traicionaron
TTITLE10=Con dos camas vacias
TTITLE11=Amor de paso
TTITLE12=Dime cuanto
TTITLE13=Mi renuncia
TTITLE14=Mi desespercaion
TTITLE15=Fuera de lugar
TTITLE16=No puedo vivir sin ti
TTITLE17=Mariana y valentina
TTITLE18=Nostalgia del ayer
EXTD=Ripped by Gerhard ©
EXTT0=
EXTT1=
EXTT2=
EXTT3=
EXTT4=
EXTT5=
EXTT6=
EXTT7=
EXTT8=
EXTT9=
EXTT10=
EXTT11=
EXTT12=
EXTT13=
EXTT14=
EXTT15=
EXTT16=
EXTT17=
EXTT18=
PLAYORDER=
